# xmcd
# 
# Track frame offsets:
#     150
#     20796
#     117235
#     145141
#     159851
#     229566
#     256947
#     267989
# 
# Disc length: 4130
# 
# Revision: 2
# Processed by: cddbd v1.5.2PL0 Copyright (c) Steve Scherf et al.
# Submitted via: fre:ac v1.0.31
# 
DISCID=63102008
DTITLE=Jefferson Airplane - The Woodstock Experience [CD2] Live At Woodstock - Part Two
DYEAR=2009
DGENRE=Rock/Pop
TTITLE0=Plastic Fantastic Lover
TTITLE1=Wooden Ships
TTITLE2=Uncle Sam Blues
TTITLE3=Volunteers
TTITLE4=The Ballad Of You and Me and Pooneil
TTITLE5=Come Back Baby
TTITLE6=White Rabbit
TTITLE7=The House At Pooneil Corners
EXTD=
EXTT0=
EXTT1=
EXTT2=
EXTT3=
EXTT4=
EXTT5=
EXTT6=
EXTT7=
PLAYORDER=
